<?xml version="1.0" standalone="no"?>
<!DOCTYPE svg PUBLIC "-//W3C//DTD SVG 20010904//EN"
 "http://www.w3.org/TR/2001/REC-SVG-20010904/DTD/svg10.dtd">
<svg version="1.0" xmlns="http://www.w3.org/2000/svg"
 width="474.000000pt" height="474.000000pt" viewBox="0 0 474.000000 474.000000"
 preserveAspectRatio="xMidYMid meet">

<g transform="translate(0.000000,474.000000) scale(0.100000,-0.100000)"
fill="#000000" stroke="none">
<path d="M0 2370 l0 -2370 990 0 c545 0 990 3 990 8 0 4 -17 16 -37 27 -20 11
-36 24 -36 30 0 15 89 65 173 97 81 30 94 33 86 19 -4 -5 -3 -11 1 -14 5 -2 2
-2 -5 0 -7 1 -19 -12 -27 -30 -7 -17 -16 -31 -19 -29 -15 6 -26 0 -36 -18 -15
-27 -4 -57 23 -66 12 -4 25 -12 30 -18 5 -8 10 -6 17 4 6 10 10 11 10 3 0 -10
127 -13 600 -13 393 0 600 3 600 10 0 6 -6 10 -14 10 -8 0 -22 10 -30 22 -14
20 -13 25 7 60 18 33 22 36 28 21 4 -10 8 -12 8 -5 1 6 5 12 9 12 5 0 7 -29 6
-65 -3 -53 -1 -65 11 -65 11 0 14 7 9 25 -3 14 -3 47 1 73 8 46 8 47 17 17 5
-16 6 -49 4 -72 l-5 -43 665 0 664 0 0 2370 0 2370 -2370 0 -2370 0 0 -2370z
m1260 1736 c0 -2 -7 -7 -16 -10 -8 -3 -12 -2 -9 4 6 10 25 14 25 6z m-42 -30
c3 -14 -1 -17 -20 -12 -12 3 -17 3 -10 0 11 -5 10 -10 -3 -23 -23 -24 -115
-180 -115 -196 0 -15 -30 -49 -37 -41 -6 6 88 185 130 248 32 49 49 56 55 24z
m760 -53 c0 -10 5 -31 11 -48 10 -23 14 -26 21 -15 7 11 10 0 11 -35 1 -81 13
-148 27 -153 8 -2 12 10 12 44 0 65 10 50 15 -22 2 -33 4 -63 5 -69 0 -5 7 -1
15 9 14 19 15 18 24 -5 7 -18 8 -9 5 36 l-4 60 14 -45 14 -45 1 38 c1 21 7 45
15 52 12 12 15 11 20 -9 3 -13 4 -39 1 -58 -4 -26 -3 -29 4 -13 5 11 10 14 10
8 1 -7 6 -13 12 -13 8 0 9 11 5 32 -3 17 -1 66 6 109 11 71 13 76 31 65 23
-13 97 -87 97 -96 0 -3 9 -15 19 -27 10 -11 21 -29 23 -39 2 -10 9 -18 15 -17
6 1 14 -4 17 -12 4 -11 -2 -15 -25 -15 -21 0 -39 -10 -60 -32 l-30 -33 26 -3
c14 -2 41 6 60 18 l35 22 9 -24 c4 -13 11 -30 14 -38 3 -9 6 -6 7 10 l1 25 10
-25 c14 -32 19 -91 8 -84 -5 3 -9 0 -9 -7 0 -7 10 -9 25 -6 24 4 25 3 11 -17
-8 -11 -18 -20 -23 -19 -4 1 -9 -10 -9 -23 -2 -20 1 -23 12 -13 11 9 14 8 14
-5 0 -9 7 -16 15 -16 10 0 15 -10 15 -27 0 -22 2 -25 10 -13 7 11 10 12 10 2
0 -8 -9 -16 -20 -19 -23 -6 -27 -23 -6 -23 20 0 29 -82 11 -96 -17 -13 -21
-29 -5 -19 6 3 10 1 10 -4 0 -16 -42 -13 -64 4 -33 25 -43 16 -13 -10 15 -14
24 -25 20 -25 -4 0 0 -5 9 -11 22 -13 48 -68 44 -94 -4 -30 -29 -30 -93 1 -31
14 -67 27 -80 27 -12 0 -20 3 -17 8 3 5 -1 9 -8 9 -7 0 -30 16 -51 35 -21 19
-41 34 -45 32 -4 -2 -17 7 -29 20 -12 13 -19 23 -15 23 12 0 -22 20 -35 20 -7
0 -13 -11 -13 -25 0 -34 -20 -32 -21 3 l-1 27 -8 -25 -8 -25 -2 25 c-1 14 -4
72 -6 129 -2 57 -6 107 -10 110 -3 3 -4 -53 -2 -126 2 -107 1 -128 -9 -110
-12 21 -12 21 -14 2 -1 -12 -5 -5 -10 15 -5 23 -6 9 -3 -45 2 -44 7 -135 10
-202 4 -68 11 -123 16 -123 5 0 6 5 3 10 -4 6 0 29 8 53 16 46 39 205 32 217
-3 4 2 11 11 14 15 6 16 0 10 -41 -4 -27 -9 -70 -11 -98 l-5 -50 15 60 c8 33
14 74 15 90 l0 30 20 -25 c11 -14 20 -22 20 -19 0 4 26 -19 58 -51 56 -55 128
-99 185 -113 29 -8 35 -28 13 -46 -11 -10 -16 -9 -24 5 -6 11 -11 13 -16 5 -4
-6 -18 -11 -31 -11 -13 0 -27 -5 -30 -10 -5 -8 -12 -7 -22 1 -12 10 -16 10
-23 0 -4 -8 -13 -10 -19 -7 -6 4 -25 5 -41 1 -22 -5 -30 -12 -30 -28 0 -16 -3
-18 -11 -10 -14 14 -28 2 -47 -41 -11 -26 -10 -30 13 -52 28 -25 27 -29 -12
-81 -13 -18 -23 -33 -21 -34 2 0 16 -3 32 -5 16 -3 44 -17 62 -31 19 -14 45
-26 59 -27 14 0 25 -5 25 -10 0 -4 6 -6 14 -3 8 3 16 1 19 -6 2 -6 14 -12 28
-13 13 -1 42 -5 64 -10 22 -4 43 -7 48 -6 4 1 7 -3 7 -9 0 -16 23 -35 51 -42
18 -5 29 -16 34 -34 5 -21 8 -24 15 -13 10 16 12 12 25 -45 17 -74 16 -106 -4
-139 -24 -39 -26 -48 -8 -45 46 6 57 -1 55 -33 -1 -18 -8 -46 -15 -61 -17 -35
-13 -40 18 -28 23 8 24 7 22 -23 -7 -81 -7 -80 -39 -86 -17 -4 -37 -11 -45
-16 -8 -5 -23 -7 -34 -6 -17 2 -15 -1 9 -22 32 -27 55 -24 104 14 20 16 27 18
34 8 13 -21 10 -24 -37 -49 -25 -13 -45 -28 -45 -32 0 -4 9 -3 21 3 11 7 23 9
26 6 3 -3 15 0 27 6 18 10 19 9 8 -4 -7 -9 -10 -22 -7 -30 4 -9 -1 -22 -9 -31
-12 -12 -13 -17 -3 -21 9 -5 9 -7 0 -12 -7 -3 -13 -11 -13 -18 0 -6 -20 -45
-45 -85 -25 -40 -45 -76 -46 -79 0 -4 -19 -32 -42 -64 -23 -31 -96 -131 -162
-222 -66 -91 -125 -163 -132 -161 -7 2 -15 -5 -18 -16 -5 -16 -99 -69 -123
-69 -4 0 -28 -11 -54 -24 -67 -34 -121 -41 -161 -23 -38 18 -58 39 -119 127
-25 36 -56 74 -69 85 -21 18 -20 17 4 -15 29 -40 92 -171 101 -213 8 -32 -5
-35 -114 -24 -20 1 -40 6 -46 9 -5 4 -38 10 -72 14 -34 3 -66 12 -69 18 -4 6
-13 36 -19 66 l-12 55 -1 -52 c-1 -29 -4 -53 -7 -53 -4 0 -22 9 -40 21 -21 13
-31 25 -27 35 6 16 -17 16 -29 0 -10 -15 -36 12 -43 44 -3 16 1 59 10 97 23
96 35 125 51 119 10 -4 14 3 14 19 0 30 16 40 57 36 26 -2 33 1 34 16 0 15 2
15 11 -4 9 -18 14 -20 29 -10 14 8 33 8 77 -1 57 -12 119 -15 95 -5 -7 2 -13
8 -13 13 0 13 43 20 57 9 6 -6 17 -8 23 -4 6 4 17 1 25 -5 11 -9 15 -9 15 -1
0 20 -5 26 -17 23 -8 -2 -13 7 -13 23 0 25 15 35 22 14 2 -7 18 3 36 21 31 30
34 31 46 15 16 -22 40 -10 33 16 -5 20 3 25 18 10 6 -5 26 -12 45 -15 31 -6
33 -5 16 6 -11 7 -41 32 -69 56 -27 24 -64 51 -83 60 -19 8 -34 20 -34 25 0 5
-7 6 -15 3 -9 -3 -18 1 -21 9 -4 8 -15 15 -25 15 -11 0 -31 8 -45 17 -22 14
-27 14 -34 2 -8 -12 -11 -12 -22 0 -10 10 -10 12 0 7 6 -4 12 -3 12 2 0 6 -7
12 -15 16 -8 3 -15 2 -15 -3 0 -5 -11 -8 -25 -8 -13 0 -22 3 -19 8 3 5 1 9 -5
9 -5 0 -12 -6 -15 -12 -4 -9 -8 -9 -11 -2 -3 6 -23 9 -45 7 -30 -2 -40 1 -40
12 0 8 -4 15 -10 15 -5 0 -10 -6 -10 -14 0 -11 -10 -13 -40 -9 -27 4 -40 2
-40 -6 0 -7 -6 -11 -14 -9 -13 3 -80 -61 -72 -69 2 -2 26 2 55 8 69 15 101 6
101 -27 0 -15 4 -23 10 -19 6 4 8 15 5 25 -5 17 -4 17 28 1 22 -10 29 -17 19
-20 -9 -2 -36 -16 -61 -31 -33 -21 -48 -25 -53 -17 -6 9 -8 9 -8 0 0 -8 -13
-13 -29 -13 -37 0 -56 -22 -42 -49 6 -11 11 -31 11 -46 0 -17 8 -29 25 -37 14
-6 25 -15 25 -20 0 -5 -14 -44 -32 -86 -18 -42 -31 -89 -30 -104 1 -16 -1 -28
-5 -28 -13 0 -31 51 -38 105 -9 67 -14 85 -27 85 -5 0 -8 -7 -4 -15 6 -18 -2
-45 -15 -45 -5 0 -9 17 -9 38 0 35 -34 136 -64 187 -9 17 -12 12 -16 -35 l-5
-55 -34 85 c-40 101 -77 261 -91 390 -22 213 -4 506 41 670 46 164 99 285 99
225 0 -9 9 -15 22 -15 12 0 19 -3 15 -6 -8 -9 35 -50 61 -58 12 -4 22 -13 22
-19 0 -15 82 -17 92 -2 5 6 8 2 8 -8 0 -17 1 -17 16 -3 9 9 28 16 42 16 15 0
62 0 106 0 l78 -1 -6 28 c-4 15 -19 53 -34 83 -14 30 -32 68 -40 83 -21 46 6
21 50 -47 22 -33 37 -50 33 -36 -14 46 -35 79 -77 120 -39 37 -46 42 -64 39
-4 0 -10 3 -13 8 -15 21 -58 41 -72 32 -10 -6 -6 -10 19 -15 17 -4 32 -10 32
-15 0 -4 -10 -5 -22 -3 -13 3 -29 6 -35 6 -8 1 -13 17 -14 42 0 35 -2 38 -9
19 -12 -29 -23 -29 -39 1 -17 31 -6 49 25 42 13 -4 41 1 61 10 52 22 95 24
116 6 10 -9 17 -11 17 -4 0 6 -8 16 -17 21 -15 9 -16 12 -3 20 8 5 18 7 22 5
4 -3 8 0 8 5 0 6 7 11 16 11 14 0 15 2 3 17 -12 15 -12 16 1 8 12 -6 13 -5 3
6 -10 10 -16 10 -25 1 -7 -7 -21 -12 -33 -11 -17 1 -17 2 5 10 17 6 8 7 -30 3
-30 -3 -92 -8 -138 -10 -57 -2 -88 -8 -98 -19 -20 -19 -28 -19 -20 0 3 8 2 15
-3 15 -13 0 -2 120 14 151 8 15 15 36 14 46 -1 24 -29 -39 -45 -102 -8 -32
-13 -41 -13 -24 -1 33 37 149 57 172 8 9 15 32 15 50 0 17 5 39 12 47 6 8 18
31 25 50 29 71 208 255 229 234 3 -3 -1 -9 -9 -14 -77 -44 -199 -191 -199
-240 0 -8 8 -1 17 15 15 28 102 115 177 180 17 14 44 38 60 53 49 45 62 53 92
57 15 2 22 2 16 -1 -7 -3 -15 -5 -18 -4 -3 0 -32 -24 -63 -53 -31 -30 -72 -67
-90 -82 -24 -20 -30 -30 -21 -36 9 -5 4 -14 -17 -32 -16 -14 -31 -23 -34 -20
-3 2 3 10 13 17 9 7 17 17 17 21 0 5 -11 -2 -25 -15 -23 -21 -23 -24 -7 -36
16 -12 15 -13 -3 -10 -15 3 -21 -2 -22 -15 -2 -19 0 -18 30 3 18 12 38 30 45
40 15 20 15 21 82 73 25 20 62 50 84 68 91 75 141 108 189 122 33 10 53 12 55
5 2 -5 8 -10 13 -10 6 0 7 5 3 11 -7 12 12 29 33 29 6 0 11 -8 11 -17z m1929
-111 c3 -13 3 -26 -1 -29 -11 -11 -23 10 -29 52 -6 37 -5 39 9 20 8 -11 17
-30 21 -43z m-2775 6 c-7 -7 -12 -8 -12 -2 0 14 12 26 19 19 2 -3 -1 -11 -7
-17z m125 -10 c-3 -8 -6 -5 -6 6 -1 11 2 17 5 13 3 -3 4 -12 1 -19z m-113 -30
c-9 -18 -19 -35 -22 -38 -8 -9 10 45 20 58 18 22 19 13 2 -20z m-31 7 c-3 -9
-8 -14 -10 -11 -3 3 -2 9 2 15 9 16 15 13 8 -4z m66 -51 c-12 -27 -23 -65 -25
-84 -4 -33 -4 -34 10 -16 9 10 13 23 10 27 -3 5 2 21 10 36 8 16 16 24 16 18
0 -5 12 8 25 30 14 22 25 33 25 25 0 -20 -35 -95 -60 -131 -12 -16 -18 -34
-14 -40 4 -7 3 -9 -4 -5 -6 3 -14 1 -18 -6 -14 -23 -24 33 -13 80 9 44 49 126
56 118 2 -2 -6 -25 -18 -52z m401 1 c-28 -25 -54 -45 -58 -45 -9 0 91 89 101
90 4 0 -15 -20 -43 -45z m577 3 c-3 -8 -6 -5 -6 6 -1 11 2 17 5 13 3 -3 4 -12
1 -19z m-1161 -60 c-9 -12 -16 -19 -16 -15 0 11 24 47 28 42 2 -2 -3 -14 -12
-27z m1114 -9 c0 -5 -4 -9 -10 -9 -5 0 -10 7 -10 16 0 8 5 12 10 9 6 -3 10
-10 10 -16z m-1240 -13 c0 -3 -4 -8 -10 -11 -5 -3 -10 -1 -10 4 0 6 5 11 10
11 6 0 10 -2 10 -4z m397 -108 c-3 -8 -6 -5 -6 6 -1 11 2 17 5 13 3 -3 4 -12
1 -19z m-153 -42 c-3 -15 -8 -25 -11 -23 -2 3 -1 17 3 31 3 15 8 25 11 23 2
-3 1 -17 -3 -31z m138 -8 c-7 -7 -12 -8 -12 -2 0 14 12 26 19 19 2 -3 -1 -11
-7 -17z m-56 -354 c-4 -20 -10 -34 -13 -30 -3 3 -2 21 1 42 4 20 10 34 13 30
3 -3 2 -21 -1 -42z m891 -31 c-3 -10 -5 -2 -5 17 0 19 2 27 5 18 2 -10 2 -26
0 -35z m-777 -65 l-1 -43 -15 28 c-16 29 -13 57 6 57 5 0 10 -19 10 -42z
m-133 -15 c-3 -10 -5 -4 -5 12 0 17 2 24 5 18 2 -7 2 -21 0 -30z m121 -166
c-8 -25 -6 -40 6 -67 16 -35 16 -35 11 -5 -3 17 -1 36 4 44 7 11 13 9 30 -8
30 -30 60 -28 53 4 -4 21 -1 25 20 25 13 0 30 -6 36 -12 10 -10 15 -10 22 2
15 23 101 -70 93 -100 -6 -21 -10 -22 -122 -19 -105 4 -121 7 -162 31 -42 25
-45 29 -41 60 6 39 29 78 47 78 10 0 11 -7 3 -33z m92 13 c0 -5 -4 -10 -10
-10 -5 0 -10 5 -10 10 0 6 5 10 10 10 6 0 10 -4 10 -10z m1123 4 c9 -10 -4
-34 -19 -34 -8 0 -14 9 -14 20 0 19 19 27 33 14z m-123 -34 c0 -5 -5 -10 -11
-10 -5 0 -7 5 -4 10 3 6 8 10 11 10 2 0 4 -4 4 -10z m-67 -160 c-4 -29 0 -47
14 -71 l20 -31 -2 41 c-3 47 9 61 25 31 13 -25 55 -36 75 -20 11 9 12 16 5 25
-8 10 -8 15 1 21 7 4 19 -2 30 -14 21 -26 29 -28 29 -6 0 14 2 14 16 3 10 -8
14 -24 12 -46 -2 -18 1 -34 7 -36 5 -3 -10 -10 -34 -16 -103 -29 -271 23 -271
83 0 9 62 76 70 76 4 0 6 -18 3 -40z m111 2 c9 -14 -12 -35 -28 -29 -23 9 -20
37 3 37 11 0 22 -4 25 -8z m-1654 -210 c0 -5 -7 -17 -16 -28 -8 -10 -14 -14
-11 -9 2 6 7 18 10 28 7 17 17 23 17 9z m1964 -434 c-4 -24 -11 -47 -16 -53
-10 -10 -1 70 9 88 10 17 13 4 7 -35z m17 -61 c-16 -16 -20 -5 -8 23 9 22 11
23 14 6 3 -10 0 -23 -6 -29z m-8 -59 c4 -12 2 -18 -8 -18 -8 0 -14 3 -14 8 3
19 -2 33 -11 27 -11 -7 -14 8 -4 18 8 7 28 -12 37 -35z m-13 -138 c-6 -11 -16
-20 -22 -20 -6 0 -3 9 7 20 10 11 20 20 22 20 2 0 -1 -9 -7 -20z m-16 -164
c-3 -9 -10 -16 -15 -16 -5 0 -4 9 3 20 14 22 21 20 12 -4z m-44 -5 c0 -5 -15
-32 -34 -60 -24 -36 -29 -48 -16 -41 10 5 28 26 40 45 12 20 24 34 26 32 7 -6
-67 -127 -77 -127 -5 0 -9 -4 -9 -10 0 -19 29 2 40 31 11 25 30 40 30 24 0 -9
-47 -79 -68 -101 -27 -29 -45 -64 -32 -64 17 0 11 -18 -7 -24 -10 -3 -7 -4 7
-3 20 3 25 -1 25 -19 0 -12 -3 -20 -7 -18 -3 2 -14 -3 -22 -12 -9 -8 -16 -11
-16 -5 0 5 5 13 10 16 16 10 12 25 -5 19 -10 -4 -15 0 -15 12 0 16 -2 17 -10
4 -6 -10 -6 -16 0 -18 6 -2 10 -12 10 -22 0 -20 -27 -46 -37 -36 -4 3 2 13 13
21 30 22 6 18 -27 -6 -16 -11 -29 -25 -29 -31 0 -6 6 -6 15 2 8 7 15 8 15 2 0
-5 -14 -15 -30 -22 -17 -7 -29 -15 -26 -17 9 -9 -39 -53 -52 -48 -10 4 -12 0
-8 -11 5 -14 4 -15 -8 -5 -11 9 -15 9 -19 -1 -4 -10 -6 -10 -6 0 -1 7 6 15 14
18 8 4 15 10 15 15 0 22 54 89 71 89 21 0 26 16 7 22 -8 3 -5 15 11 39 l23 34
-29 -32 c-40 -45 -50 -42 -17 5 79 107 107 142 112 138 3 -3 -7 -21 -22 -40
-14 -19 -26 -38 -26 -42 0 -4 15 13 34 37 20 26 29 47 23 50 -5 4 14 38 47 79
31 40 56 76 56 81 0 5 2 9 5 9 3 0 5 -4 5 -9z m-1011 -35 c35 -2 51 -18 32
-31 -19 -11 -12 -25 14 -25 14 0 25 -4 25 -9 0 -5 11 -8 25 -5 20 3 25 0 25
-15 0 -25 -17 -36 -34 -22 -7 6 -20 9 -29 5 -8 -3 -18 -1 -22 5 -10 17 -35 13
-36 -6 0 -13 -3 -11 -10 7 -6 13 -15 28 -22 32 -8 5 -4 8 11 8 12 0 22 5 22
10 0 10 -3 11 -52 14 -32 1 -42 10 -35 30 4 10 14 13 29 10 13 -3 38 -7 57 -8z
m1032 -39 c-10 -9 -11 -8 -5 6 3 10 9 15 12 12 3 -3 0 -11 -7 -18z m-1221 3
c0 -5 -4 -10 -10 -10 -5 0 -10 5 -10 10 0 6 5 10 10 10 6 0 10 -4 10 -10z
m-28 -54 c-9 -19 -18 -28 -20 -21 -4 17 15 55 28 55 5 0 2 -15 -8 -34z m438
24 c8 -5 11 -10 5 -10 -5 0 -17 5 -25 10 -8 5 -10 10 -5 10 6 0 17 -5 25 -10z
m-330 -26 c0 -8 -5 -12 -10 -9 -6 4 -8 11 -5 16 9 14 15 11 15 -7z m277 -16
c-3 -7 -5 -2 -5 12 0 14 2 19 5 13 2 -7 2 -19 0 -25z m-364 7 c-3 -9 -8 -14
-10 -11 -3 3 -2 9 2 15 9 16 15 13 8 -4z m1210 -20 c-3 -9 -8 -14 -10 -11 -3
3 -2 9 2 15 9 16 15 13 8 -4z m-1523 -75 c0 -5 -4 -10 -10 -10 -5 0 -10 5 -10
10 0 6 5 10 10 10 6 0 10 -4 10 -10z m1475 -40 c-3 -5 -12 -10 -18 -10 -7 0
-6 4 3 10 19 12 23 12 15 0z m28 -290 c-1 -41 -9 -97 -18 -125 -9 -27 -25 -84
-36 -125 -29 -105 -53 -152 -96 -191 -21 -18 -30 -30 -20 -26 9 3 17 2 17 -3
0 -6 -4 -10 -10 -10 -5 0 -10 -7 -10 -15 0 -9 -6 -12 -15 -9 -8 4 -15 2 -15
-4 0 -6 -14 -15 -31 -21 -40 -14 -48 -13 -29 2 16 13 28 62 13 55 -48 -26
-108 -48 -119 -44 -15 6 -13 30 16 146 29 121 31 130 25 130 -2 0 -12 -15 -21
-32 -10 -20 -19 -28 -22 -20 -5 16 25 51 54 62 22 9 79 103 91 148 3 13 13 26
22 29 34 11 83 39 94 53 7 9 25 26 41 38 16 12 25 22 20 22 -5 0 -4 4 3 8 7 4
20 8 30 8 16 0 18 -9 16 -76z m-261 -87 c-6 -2 -10 -9 -7 -13 3 -5 -7 -35 -23
-66 -17 -33 -32 -52 -36 -46 -7 12 -5 14 -87 -58 -38 -33 -48 -38 -53 -24 -4
10 6 31 25 55 28 36 40 44 62 40 5 -1 6 9 2 21 -4 16 -3 19 3 9 7 -9 15 -10
28 -3 25 13 52 43 56 62 3 17 18 30 33 29 6 0 4 -3 -3 -6z m-771 -63 c19 0 8
-95 -16 -140 l-23 -45 -4 93 c-1 52 -1 96 1 98 3 3 11 2 19 -1 7 -3 18 -5 23
-5z m353 -82 c-4 -13 -17 -37 -30 -54 -32 -41 -31 -63 1 -27 13 15 25 22 25
16 0 -7 -4 -13 -10 -13 -5 0 -10 -5 -10 -11 0 -5 5 -7 10 -4 14 9 12 -7 -4
-30 -7 -11 -19 -38 -26 -59 -12 -37 -13 -38 -27 -20 -8 10 -18 18 -23 17 -5
-2 -7 4 -3 13 5 13 8 13 15 2 6 -9 7 -5 3 11 -4 13 -3 21 1 18 5 -3 10 9 11
26 l2 32 -16 -33 c-9 -18 -18 -31 -20 -29 -7 8 30 76 38 71 10 -6 29 29 29 53
-1 12 -5 8 -15 -12 -16 -37 -19 -29 -4 14 6 17 15 31 21 31 5 0 7 -4 3 -9 -3
-5 -1 -12 4 -15 5 -4 12 3 16 14 3 11 9 20 11 20 3 0 2 -10 -2 -22z m-152 -20
c-7 -7 -12 -8 -12 -2 0 14 12 26 19 19 2 -3 -1 -11 -7 -17z m-123 -68 c-22
-39 -31 -43 -35 -15 -1 8 2 13 7 9 5 -3 9 0 9 6 0 6 7 18 15 26 8 9 16 25 16
37 2 22 2 22 6 0 2 -13 -6 -41 -18 -63z m148 58 c-3 -8 -6 -5 -6 6 -1 11 2 17
5 13 3 -3 4 -12 1 -19z m26 -45 c-31 -63 -47 -83 -65 -83 -25 0 -12 27 34 72
21 21 38 43 38 50 0 6 3 9 6 6 3 -4 -3 -23 -13 -45z m-73 27 c0 -5 -4 -10 -10
-10 -5 0 -10 5 -10 10 0 6 5 10 10 10 6 0 10 -4 10 -10z m352 -12 c-7 -7 -12
-19 -12 -27 1 -13 2 -13 11 2 13 22 29 22 29 -1 0 -17 -45 -64 -120 -126 -23
-20 -24 -20 -8 -1 9 11 17 23 17 28 1 18 32 65 46 71 9 3 14 10 11 14 -5 9 21
52 32 52 3 0 1 -5 -6 -12z m-372 -52 c0 -2 -7 -9 -15 -16 -13 -11 -14 -10 -9
4 5 14 24 23 24 12z m429 -85 c-32 -58 -49 -75 -49 -50 0 13 36 75 58 102 29
33 24 8 -9 -52z m161 -115 c0 -2 -7 -7 -16 -10 -8 -3 -12 -2 -9 4 6 10 25 14
25 6z"/>
<path d="M2313 3770 c-20 -12 -33 -28 -33 -40 0 -11 -5 -29 -12 -40 -17 -26 0
-40 18 -15 8 11 30 41 49 68 37 50 30 59 -22 27z"/>
<path d="M1389 3659 c-27 -45 -41 -79 -35 -79 2 0 14 19 26 43 12 23 27 45 32
48 6 4 9 12 6 20 -2 7 -16 -8 -29 -32z"/>
<path d="M2190 3662 c0 -22 5 -32 16 -32 11 0 14 6 9 23 -12 38 -25 43 -25 9z"/>
<path d="M2240 3616 l0 -45 33 6 c51 9 67 22 20 16 -39 -5 -43 -4 -43 16 0 11
5 21 11 21 5 0 8 -4 4 -9 -7 -12 8 -22 20 -13 6 4 17 16 25 26 14 18 13 18 -7
12 -12 -4 -31 -2 -43 4 -19 10 -20 8 -20 -34z"/>
<path d="M2190 3571 c0 -12 5 -21 10 -21 6 0 10 6 10 14 0 8 -4 18 -10 21 -5
3 -10 -3 -10 -14z"/>
<path d="M2061 3554 c0 -11 3 -14 6 -6 3 7 2 16 -1 19 -3 4 -6 -2 -5 -13z"/>
<path d="M2192 3500 c0 -19 2 -27 5 -17 2 9 2 25 0 35 -3 9 -5 1 -5 -18z"/>
<path d="M2240 3505 c0 -8 4 -15 10 -15 5 0 7 7 4 15 -4 8 -8 15 -10 15 -2 0
-4 -7 -4 -15z"/>
<path d="M2051 3494 c0 -11 3 -14 6 -6 3 7 2 16 -1 19 -3 4 -6 -2 -5 -13z"/>
<path d="M2416 3307 c3 -10 9 -15 12 -12 3 3 0 11 -7 18 -10 9 -11 8 -5 -6z"/>
<path d="M1734 3107 c3 -10 6 -53 6 -95 0 -55 3 -73 10 -62 12 17 3 137 -12
160 -8 12 -8 11 -4 -3z"/>
<path d="M2151 2803 c0 -12 2 -14 6 -4 5 11 7 11 15 0 8 -12 9 -12 6 0 -6 22
-28 25 -27 4z"/>
<path d="M1869 2713 c-13 -15 -12 -15 9 -4 23 12 28 21 13 21 -5 0 -15 -7 -22
-17z"/>
<path d="M1809 2653 c-13 -16 -12 -17 4 -4 16 13 21 21 13 21 -2 0 -10 -8 -17
-17z"/>
<path d="M1875 2660 c-3 -6 1 -7 9 -4 18 7 21 14 7 14 -6 0 -13 -4 -16 -10z"/>
<path d="M1836 2628 c3 -5 10 -6 15 -3 13 9 11 12 -6 12 -8 0 -12 -4 -9 -9z"/>
<path d="M1970 2553 c0 -13 29 -38 35 -31 3 3 -4 13 -15 23 -11 10 -20 13 -20
8z"/>
<path d="M2490 2426 c0 -2 7 -6 15 -10 8 -3 15 -1 15 4 0 6 -7 10 -15 10 -8 0
-15 -2 -15 -4z"/>
<path d="M1510 2201 c0 -6 4 -13 10 -16 6 -3 7 1 4 9 -7 18 -14 21 -14 7z"/>
<path d="M1668 2179 c-20 -11 -24 -33 -5 -26 14 4 36 -21 37 -42 0 -22 50 -82
61 -75 6 3 10 22 9 43 -4 77 -3 79 29 43 17 -17 34 -32 38 -32 4 0 -1 7 -11
15 -11 8 -16 15 -11 15 16 0 -31 43 -62 56 -38 16 -61 17 -85 3z"/>
<path d="M1818 2073 c7 -3 16 -2 19 1 4 3 -2 6 -13 5 -11 0 -14 -3 -6 -6z"/>
<path d="M1536 1447 c3 -10 9 -15 12 -12 3 3 0 11 -7 18 -10 9 -11 8 -5 -6z"/>
<path d="M2280 1300 c0 -5 5 -10 10 -10 6 0 10 5 10 10 0 6 -4 10 -10 10 -5 0
-10 -4 -10 -10z"/>
<path d="M1438 1177 c-3 -19 -2 -25 4 -19 6 6 8 18 6 28 -3 14 -5 12 -10 -9z"/>
<path d="M2460 2694 l-25 -15 25 7 c14 3 29 10 35 15 15 14 -7 10 -35 -7z"/>
<path d="M2220 900 c-12 -16 -18 -30 -13 -30 4 0 16 14 25 30 22 39 15 39 -12
0z"/>
<path d="M3323 74 c-3 -8 -1 -20 6 -27 8 -8 11 -8 11 0 0 6 3 18 6 27 3 9 1
16 -5 16 -7 0 -14 -7 -18 -16z"/>
</g>
</svg>
